<?xml version="1.0" encoding="UTF-8"?>
<svg id="Layer_2" data-name="Layer 2" xmlns="http://www.w3.org/2000/svg" viewBox="0 0 299.66 77.03">
  <defs>
    <style>
      .cls-1 {
        fill: #a2ff00;
      }

      .cls-1, .cls-2 {
        stroke-width: 0px;
      }

      .cls-2 {
        fill: #fff;
      }
    </style>
  </defs>
  <g id="Layer_1-2" data-name="Layer 1">
    <g>
      <g>
        <path class="cls-1" d="m0,0v31.85c.3-.64.67-1.28,1.09-1.95.51-.79,1.09-1.53,1.75-2.22.65-.69,1.36-1.28,2.13-1.77.77-.48,1.58-.8,2.44-.95,1.16-.23,2.29-.21,3.37.05,1.09.26,2.09.71,3.01,1.35.92.64,1.72,1.44,2.41,2.42.7.97,1.21,2.06,1.55,3.25.64-1.27,1.25-2.35,1.85-3.25.6-.9,1.25-1.64,1.94-2.22.69-.58,1.45-1.01,2.28-1.3.82-.28,1.77-.43,2.86-.47h1.48c.06,0,.11.01.17.01.54,0,1.06.07,1.58.18.67.12,1.31.29,1.91.5,1.48.54,2.71,1.35,3.71,2.42.82.88,1.47,1.96,1.96,3.2.47-.88.93-1.66,1.38-2.33.6-.9,1.25-1.64,1.94-2.22.69-.58,1.45-1.01,2.28-1.3.82-.28,1.77-.43,2.86-.47h1.48c.06,0,.11.01.17.01.55,0,1.08.07,1.61.19.66.12,1.29.28,1.88.5,1.48.54,2.71,1.35,3.71,2.42.83.88,1.47,1.96,1.96,3.21.47-.88.93-1.66,1.38-2.34.6-.9,1.25-1.64,1.94-2.22.69-.58,1.45-1.01,2.28-1.3.82-.28,1.77-.43,2.86-.47h1.48c1.35.06,2.57.3,3.66.7,1.48.54,2.71,1.35,3.71,2.42.99,1.06,1.74,2.38,2.24,3.96.51,1.57.76,3.33.76,5.28V0H0Z"/>
        <path class="cls-1" d="m68.73,37.71c0-.86-.08-1.66-.22-2.39-.15-.73-.43-1.37-.82-1.91-.39-.54-.9-.97-1.52-1.29-.61-.32-1.41-.48-2.38-.48-2.14,0-3.68.63-4.61,1.88-.94,1.26-1.41,2.88-1.41,4.86v14.71h-8.36v-15.38c0-1.72-.35-3.17-1.04-4.33-.06-.09-.14-.16-.2-.24-.35-.41-.76-.76-1.27-1.02-.1-.05-.22-.1-.33-.14-.22-.08-.44-.16-.69-.21-.06-.01-.12-.02-.18-.03-.37-.06-.75-.1-1.18-.1-1.05,0-1.96.19-2.73.56-.76.38-1.39.88-1.88,1.52-.48.64-.84,1.38-1.06,2.22-.23.84-.34,1.75-.34,2.72v-.44s0,.05,0,.08v14.79h-8.36v-15.38c0-1.72-.35-3.17-1.04-4.33-.07-.11-.17-.19-.24-.29-.34-.38-.74-.72-1.22-.97-.1-.05-.21-.09-.32-.14-.23-.09-.47-.17-.74-.22-.04,0-.09-.01-.14-.02-.37-.06-.76-.1-1.19-.1,0,0-.02,0-.02,0-1.04,0-1.94.19-2.71.56-.76.38-1.39.88-1.88,1.52-.48.64-.84,1.38-1.06,2.22-.23.84-.34,1.75-.34,2.72v-.36s0,.05,0,.08v14.71h-8.36v-15.38c0-1.72-.35-3.17-1.04-4.33-.7-1.16-1.98-1.74-3.85-1.74-1.05,0-1.96.19-2.73.56-.76.38-1.39.88-1.88,1.52-.48.64-.84,1.38-1.06,2.22-.23.84-.34,1.75-.34,2.72v38.37h77.03v-23.94h-8.31v-15.38Z"/>
      </g>
      <g>
        <path class="cls-2" d="m97.43,53.09v-28.03h8.2v7.13c.34-.75.76-1.52,1.26-2.3.51-.79,1.09-1.53,1.74-2.22.65-.69,1.37-1.28,2.13-1.77.77-.49,1.58-.8,2.44-.95,1.16-.22,2.28-.21,3.37.06,1.09.26,2.09.71,3.01,1.35.92.64,1.72,1.44,2.42,2.42.69.97,1.21,2.06,1.54,3.26.64-1.27,1.25-2.36,1.85-3.26.6-.9,1.24-1.64,1.94-2.22.69-.58,1.45-1.01,2.28-1.29.82-.28,1.78-.44,2.86-.48,1.95-.07,3.66.16,5.14.7,1.48.54,2.71,1.35,3.71,2.42.99,1.07,1.74,2.39,2.25,3.96.51,1.57.76,3.33.76,5.28v15.95h-8.31v-15.39c0-.86-.08-1.66-.22-2.39-.15-.73-.42-1.37-.81-1.91-.39-.54-.9-.97-1.52-1.29-.62-.32-1.41-.48-2.39-.48-2.13,0-3.67.63-4.61,1.88-.94,1.26-1.4,2.87-1.4,4.86v14.72h-8.37v-15.39c0-1.72-.35-3.16-1.04-4.33-.69-1.16-1.98-1.74-3.85-1.74-1.05,0-1.96.19-2.72.56-.77.38-1.4.88-1.88,1.52-.49.64-.84,1.38-1.07,2.22s-.34,1.75-.34,2.72v14.44h-8.37Z"/>
        <path class="cls-2" d="m146.92,25.06h8.37l7.86,22.47h.56l7.92-22.47h8.2l-10.11,28.03h-13.26l-9.55-28.03Z"/>
        <path class="cls-2" d="m209.89,44.28c-.22,1.87-.79,3.38-1.69,4.52-.9,1.14-2,2.03-3.31,2.67-1.31.64-2.74,1.07-4.3,1.29-1.55.22-3.1.34-4.63.34-2.25,0-4.31-.27-6.18-.81-1.87-.54-3.48-1.39-4.83-2.56-1.35-1.16-2.41-2.66-3.17-4.49s-1.15-4.04-1.15-6.63c0-1.12.18-2.48.53-4.07.36-1.59,1.07-3.13,2.13-4.61,1.07-1.48,2.59-2.73,4.58-3.76,1.99-1.03,4.61-1.54,7.86-1.54,2.55,0,4.74.37,6.57,1.1,1.83.73,3.35,1.79,4.55,3.17,1.2,1.39,2.08,3.07,2.64,5.06.56,1.99.82,4.23.79,6.74h-22.08c.07,1.8.73,3.29,1.97,4.47,1.24,1.18,3.24,1.77,6.01,1.77,1.91,0,3.41-.23,4.49-.7,1.09-.47,1.76-1.11,2.02-1.94h7.19Zm-7.3-7.42c-.19-1.8-.86-3.17-2.02-4.13-1.16-.95-2.94-1.43-5.34-1.43-1.91,0-3.46.51-4.63,1.52s-1.92,2.36-2.22,4.04h14.21Z"/>
        <path class="cls-2" d="m215.12,25.06h8.15l.06,7.64c.64-2.7,1.77-4.68,3.4-5.95,1.63-1.27,3.4-1.91,5.31-1.91h4.27v7.36l-5.79.17c-.9.04-1.78.28-2.64.73-.86.45-1.61,1.04-2.25,1.77s-1.15,1.56-1.54,2.5c-.39.94-.59,1.91-.59,2.92v12.81h-8.37v-28.03Z"/>
        <path class="cls-2" d="m259.27,33.72c-.11-.75-.42-1.34-.93-1.77-.5-.43-1.1-.74-1.8-.93-.69-.19-1.41-.3-2.16-.34-.75-.04-1.42-.06-2.02-.06-1.54,0-2.85.23-3.93.7-1.09.47-1.63,1.17-1.63,2.11,0,.19.02.34.06.45.15.67.74,1.16,1.77,1.46,1.03.3,2.28.53,3.74.7,1.46.17,3.02.37,4.69.59,1.67.22,3.21.62,4.63,1.18,1.42.56,2.6,1.38,3.54,2.44.94,1.07,1.38,2.52,1.35,4.35,0,1.91-.44,3.45-1.32,4.61-.88,1.16-1.97,2.06-3.26,2.7s-2.7,1.06-4.21,1.26-2.95.31-4.3.31c-2.02,0-3.91-.17-5.67-.5-1.76-.34-3.29-.89-4.58-1.66s-2.3-1.76-3.03-2.98c-.73-1.22-1.12-2.72-1.15-4.52h7.19c.04.64.31,1.16.81,1.57.51.41,1.1.74,1.8.98.69.24,1.42.42,2.19.53s1.41.17,1.94.17c.34,0,.86-.02,1.57-.06.71-.04,1.43-.14,2.16-.31s1.37-.41,1.91-.73c.54-.32.81-.76.81-1.32,0-.75-.5-1.27-1.49-1.57-.99-.3-2.23-.55-3.71-.76-1.48-.21-3.08-.43-4.8-.67-1.72-.24-3.32-.66-4.8-1.26-1.48-.6-2.72-1.46-3.71-2.58s-1.49-2.66-1.49-4.61c0-2.73,1.06-4.9,3.17-6.49,2.12-1.59,5.48-2.39,10.08-2.39,4.01,0,7.2.73,9.58,2.19,2.38,1.46,3.68,3.86,3.9,7.19h-6.91Z"/>
        <path class="cls-2" d="m299.27,44.28c-.22,1.87-.79,3.38-1.69,4.52-.9,1.14-2,2.03-3.31,2.67-1.31.64-2.74,1.07-4.3,1.29-1.55.22-3.1.34-4.63.34-2.25,0-4.31-.27-6.18-.81-1.87-.54-3.48-1.39-4.83-2.56-1.35-1.16-2.41-2.66-3.17-4.49s-1.15-4.04-1.15-6.63c0-1.12.18-2.48.53-4.07.36-1.59,1.07-3.13,2.13-4.61,1.07-1.48,2.59-2.73,4.58-3.76,1.99-1.03,4.61-1.54,7.86-1.54,2.55,0,4.74.37,6.57,1.1,1.83.73,3.35,1.79,4.55,3.17,1.2,1.39,2.08,3.07,2.64,5.06.56,1.99.82,4.23.79,6.74h-22.08c.07,1.8.73,3.29,1.97,4.47,1.24,1.18,3.24,1.77,6.01,1.77,1.91,0,3.41-.23,4.49-.7,1.09-.47,1.76-1.11,2.02-1.94h7.19Zm-7.3-7.42c-.19-1.8-.86-3.17-2.02-4.13-1.16-.95-2.94-1.43-5.34-1.43-1.91,0-3.46.51-4.63,1.52s-1.92,2.36-2.22,4.04h14.21Z"/>
      </g>
    </g>
  </g>
</svg>